<svg id="Layer_1" data-name="Layer 1" xmlns="http://www.w3.org/2000/svg" viewBox="0 0 250 150"><defs><style>.cls-1{fill:#666;}.cls-2{fill:#dd0031;}.cls-3{fill:#c3002f;}.cls-4{fill:#fff;}</style></defs><g id="Layer_1-2" data-name="Layer 1"><rect class="cls-1" width="250" height="150"/></g><polygon class="cls-2" points="125 17.9 125 17.9 125 17.9 71.84 36.85 79.94 107.15 125 132.1 125 132.1 125 132.1 170.06 107.15 178.16 36.85 125 17.9"/><polygon class="cls-3" points="125 17.9 125 30.57 125 30.52 125 88.36 125 88.36 125 132.1 125 132.1 170.06 107.15 178.16 36.85 125 17.9"/><path class="cls-4" d="M125,30.52,91.77,105h12.39l6.68-16.68h28.21L145.73,105h12.39L125,30.52Zm9.71,47.56H115.29L125,54.73Z" transform="translate(0 0)"/></svg>