<svg id="Layer_1" data-name="Layer 1" xmlns="http://www.w3.org/2000/svg" viewBox="0 0 250 150"><defs><style>.cls-1{fill:#666;}.cls-2{fill:#a179dc;}.cls-3{fill:#280068;}.cls-4{fill:#390091;}.cls-5{fill:#fff;}</style></defs><g id="Layer_1-2" data-name="Layer 1"><rect class="cls-1" width="250" height="150"/></g><path class="cls-2" d="M173,52.75a9.61,9.61,0,0,0-1.17-4.8,9.13,9.13,0,0,0-3.48-3.38Q149.2,33.5,130,22.45a9.44,9.44,0,0,0-10.21.1c-5.09,3-30.58,17.61-38.18,22A8.88,8.88,0,0,0,77,52.75q0,22.25,0,44.5A9.6,9.6,0,0,0,78.08,102a9.15,9.15,0,0,0,3.53,3.48c7.59,4.4,33.09,19,38.18,22a9.44,9.44,0,0,0,10.22.11q19.17-11.08,38.38-22.12a9.09,9.09,0,0,0,3.53-3.48,9.56,9.56,0,0,0,1.13-4.7s0-29.66,0-44.5"/><path class="cls-3" d="M125.15,74.86,78.08,102a9.15,9.15,0,0,0,3.53,3.48c7.59,4.4,33.09,19,38.18,22a9.44,9.44,0,0,0,10.22.11q19.17-11.08,38.38-22.12a9.09,9.09,0,0,0,3.53-3.48L125.15,74.86"/><path class="cls-4" d="M173,52.75a9.61,9.61,0,0,0-1.17-4.8L125.15,74.86,171.92,102a9.56,9.56,0,0,0,1.13-4.7s0-29.66,0-44.5"/><path class="cls-5" d="M152.86,64.72v5.07h5.07V64.72h2.53v5.07h5.06v2.53h-5.06v5.07h5.06v2.53h-5.06V85h-2.53V79.92h-5.07V85h-2.53V79.92h-5.07V77.39h5.07V72.32h-5.07V69.79h5.07V64.72Zm5.07,7.6h-5.07v5.07h5.07Z"/><path class="cls-5" d="M125.25,39.28a35.72,35.72,0,0,1,30.93,17.84l-.06-.1L140.57,66a17.78,17.78,0,0,0-15.12-8.75h-.2a17.79,17.79,0,1,0,15.5,26.51l-.08.13,15.53,9a35.72,35.72,0,0,1-30.55,17.88h-.4a35.72,35.72,0,0,1,0-71.44Z"/></svg>
