<?xml version="1.0" encoding="utf-8"?>
<!-- Generator: Adobe Illustrator 17.0.0, SVG Export Plug-In . SVG Version: 6.00 Build 0)  -->
<!DOCTYPE svg PUBLIC "-//W3C//DTD SVG 1.1//EN" "http://www.w3.org/Graphics/SVG/1.1/DTD/svg11.dtd">
<svg version="1.1" id="Layer_1" xmlns="http://www.w3.org/2000/svg" xmlns:xlink="http://www.w3.org/1999/xlink" x="0px" y="0px"
	 width="250px" height="150px" viewBox="0 0 250 150" enable-background="new 0 0 250 150" xml:space="preserve">
<rect fill="#666666" width="250" height="150"/>
<polygon id="_337847128" fill="#1572B6" points="171.91,125.66 182.058,11.983 182.19,10.492 180.695,10.492 69.305,10.492 
	67.81,10.492 67.942,11.983 78.08,125.678 78.164,126.627 79.077,126.879 124.568,139.508 125.297,139.508 170.912,126.861 
	171.825,126.608 "/>
<polygon id="_337847104" fill="#35A8DB" points="173.375,18.555 125,18.555 125,131.223 164.29,120.33 "/>
<polygon fill="#E9E9E8" points="161.492,33.604 161.204,33.604 160.915,33.604 160.627,33.604 160.339,33.604 160.051,33.604 
	159.764,33.604 159.476,33.604 159.188,33.604 158.9,33.604 158.611,33.604 158.323,33.604 158.035,33.604 157.747,33.604 
	157.459,33.604 157.171,33.604 156.883,33.604 156.595,33.604 156.307,33.604 156.019,33.604 155.731,33.604 155.443,33.604 
	155.155,33.604 154.867,33.604 154.579,33.604 154.291,33.604 154.003,33.604 153.715,33.604 153.426,33.604 153.138,33.604 
	152.85,33.604 152.562,33.604 152.274,33.604 151.986,33.604 151.699,33.604 151.411,33.604 151.122,33.604 150.834,33.604 
	150.546,33.604 150.258,33.604 149.97,33.604 149.682,33.604 149.394,33.604 149.106,33.604 148.818,33.604 148.53,33.604 
	148.242,33.604 147.954,33.604 147.666,33.604 147.378,33.604 147.09,33.604 146.802,33.604 146.514,33.604 146.226,33.604 
	145.937,33.604 145.649,33.604 145.361,33.604 145.073,33.604 144.785,33.604 144.497,33.604 144.21,33.604 143.922,33.604 
	143.633,33.604 143.345,33.604 143.057,33.604 142.769,33.604 142.481,33.604 142.193,33.604 141.905,33.604 141.617,33.604 
	141.329,33.604 141.041,33.604 140.753,33.604 140.465,33.604 140.177,33.604 139.889,33.604 139.601,33.604 139.313,33.604 
	139.025,33.604 138.737,33.604 138.448,33.604 138.16,33.604 137.872,33.604 137.584,33.604 137.296,33.604 137.009,33.604 
	136.721,33.604 136.433,33.604 136.145,33.604 135.856,33.604 135.568,33.604 135.28,33.604 134.992,33.604 134.704,33.604 
	134.416,33.604 134.128,33.604 133.84,33.604 133.552,33.604 133.263,33.604 132.975,33.604 132.688,33.604 132.4,33.604 
	132.112,33.604 131.824,33.604 131.536,33.604 131.248,33.604 130.96,33.604 130.671,33.604 130.383,33.604 130.095,33.604 
	129.807,33.604 129.52,33.604 129.232,33.604 128.944,33.604 128.656,33.604 128.367,33.604 128.079,33.604 127.791,33.604 
	127.503,33.604 127.215,33.604 126.927,33.604 126.639,33.604 126.351,33.604 126.063,33.604 125.775,33.604 125.487,33.604 
	125.199,33.604 124.946,33.604 124.911,33.604 124.623,33.604 124.335,33.604 124.047,33.604 123.759,33.604 123.471,33.604 
	123.182,33.604 122.895,33.604 122.607,33.604 122.319,33.604 122.031,33.604 121.742,33.604 121.454,33.604 121.166,33.604 
	120.878,33.604 120.59,33.604 120.302,33.604 120.014,33.604 119.726,33.604 119.438,33.604 119.15,33.604 118.862,33.604 
	118.574,33.604 118.286,33.604 117.998,33.604 117.71,33.604 117.422,33.604 117.134,33.604 116.846,33.604 116.558,33.604 
	116.27,33.604 115.982,33.604 115.694,33.604 115.406,33.604 115.118,33.604 114.829,33.604 114.542,33.604 114.253,33.604 
	113.965,33.604 113.677,33.604 113.389,33.604 113.101,33.604 112.813,33.604 112.525,33.604 112.237,33.604 111.949,33.604 
	111.661,33.604 111.373,33.604 111.085,33.604 110.797,33.604 110.509,33.604 110.221,33.604 109.933,33.604 109.645,33.604 
	109.357,33.604 109.069,33.604 108.781,33.604 108.493,33.604 108.205,33.604 107.917,33.604 107.629,33.604 107.341,33.604 
	107.052,33.604 106.765,33.604 106.476,33.604 106.188,33.604 105.9,33.604 105.612,33.604 105.324,33.604 105.036,33.604 
	104.748,33.604 104.46,33.604 104.172,33.604 103.884,33.604 103.596,33.604 103.308,33.604 103.02,33.604 102.732,33.604 
	102.444,33.604 102.156,33.604 101.868,33.604 101.58,33.604 101.292,33.604 101.004,33.604 100.716,33.604 100.428,33.604 
	100.14,33.604 99.852,33.604 99.564,33.604 99.275,33.604 98.987,33.604 98.699,33.604 98.411,33.604 98.123,33.604 97.835,33.604 
	97.547,33.604 97.259,33.604 96.971,33.604 96.683,33.604 96.395,33.604 96.107,33.604 95.819,33.604 95.531,33.604 95.243,33.604 
	94.955,33.604 94.667,33.604 94.379,33.604 94.091,33.604 93.803,33.604 93.515,33.604 93.227,33.604 92.939,33.604 92.651,33.604 
	92.363,33.604 92.075,33.604 91.786,33.604 91.498,33.604 91.21,33.604 90.922,33.604 90.634,33.604 90.346,33.604 90.058,33.604 
	89.77,33.604 89.482,33.604 89.194,33.604 88.906,33.604 88.618,33.604 88.33,33.604 88.042,33.604 87.754,33.604 88.042,35.935 
	88.33,38.265 88.618,40.595 88.906,42.927 89.194,45.257 89.482,47.588 89.533,47.995 89.77,47.995 90.058,47.995 90.346,47.995 
	90.634,47.995 90.922,47.995 91.21,47.995 91.498,47.995 91.786,47.995 92.075,47.995 92.363,47.995 92.651,47.995 92.939,47.995 
	93.227,47.995 93.515,47.995 93.803,47.995 94.091,47.995 94.379,47.995 94.667,47.995 94.955,47.995 95.243,47.995 95.531,47.995 
	95.819,47.995 96.107,47.995 96.395,47.995 96.683,47.995 96.971,47.995 97.259,47.995 97.547,47.995 97.835,47.995 98.123,47.995 
	98.411,47.995 98.699,47.995 98.987,47.995 99.275,47.995 99.564,47.995 99.852,47.995 100.14,47.995 100.428,47.995 
	100.716,47.995 101.004,47.995 101.292,47.995 101.58,47.995 101.868,47.995 102.156,47.995 102.444,47.995 102.732,47.995 
	103.02,47.995 103.308,47.995 103.596,47.995 103.884,47.995 104.172,47.995 104.46,47.995 104.748,47.995 105.036,47.995 
	105.324,47.995 105.612,47.995 105.9,47.995 106.188,47.995 106.476,47.995 106.765,47.995 107.052,47.995 107.341,47.995 
	107.629,47.995 107.917,47.995 108.205,47.995 108.493,47.995 108.781,47.995 109.069,47.995 109.357,47.995 109.645,47.995 
	109.933,47.995 110.221,47.995 110.509,47.995 110.797,47.995 111.085,47.995 111.373,47.995 111.661,47.995 111.949,47.995 
	112.237,47.995 112.525,47.995 112.813,47.995 113.101,47.995 113.389,47.995 113.677,47.995 113.965,47.995 114.253,47.995 
	114.542,47.995 114.829,47.995 115.118,47.995 115.406,47.995 115.694,47.995 115.982,47.995 116.27,47.995 116.558,47.995 
	116.846,47.995 117.134,47.995 117.422,47.995 117.71,47.995 117.998,47.995 118.286,47.995 118.574,47.995 118.862,47.995 
	119.15,47.995 119.438,47.995 119.726,47.995 120.014,47.995 120.302,47.995 120.59,47.995 120.878,47.995 121.166,47.995 
	121.454,47.995 121.742,47.995 122.031,47.995 122.319,47.995 122.607,47.995 122.895,47.995 123.182,47.995 123.471,47.995 
	123.759,47.995 124.047,47.995 124.335,47.995 124.623,47.995 124.911,47.995 124.946,47.995 124.988,47.995 125.199,47.995 
	125.487,47.995 125.775,47.995 126.063,47.995 126.351,47.995 126.639,47.995 126.927,47.995 126.935,47.995 126.937,47.995 
	124.946,48.824 90.827,63.034 91.958,77.102 92.009,77.08 92.011,77.102 142.6,77.228 141.494,96.021 124.946,100.666 
	108.828,96.668 107.858,85.034 93.001,85.028 94.869,107.503 125,116.397 154.916,107.664 157.604,76.761 157.604,76.761 
	158.797,63.036 124.857,63.036 124.946,62.998 160.037,47.995 161.18,36.689 161.204,36.453 "/>
<polygon fill="#FFFFFE" points="161.492,33.604 161.204,33.604 160.915,33.604 160.627,33.604 160.339,33.604 160.051,33.604 
	159.764,33.604 159.476,33.604 159.188,33.604 158.9,33.604 158.611,33.604 158.323,33.604 158.035,33.604 157.747,33.604 
	157.459,33.604 157.171,33.604 156.883,33.604 156.595,33.604 156.307,33.604 156.019,33.604 155.731,33.604 155.443,33.604 
	155.155,33.604 154.867,33.604 154.579,33.604 154.291,33.604 154.003,33.604 153.715,33.604 153.426,33.604 153.138,33.604 
	152.85,33.604 152.562,33.604 152.274,33.604 151.986,33.604 151.699,33.604 151.411,33.604 151.122,33.604 150.834,33.604 
	150.546,33.604 150.258,33.604 149.97,33.604 149.682,33.604 149.394,33.604 149.106,33.604 148.818,33.604 148.53,33.604 
	148.242,33.604 147.954,33.604 147.666,33.604 147.378,33.604 147.09,33.604 146.802,33.604 146.514,33.604 146.226,33.604 
	145.937,33.604 145.649,33.604 145.361,33.604 145.073,33.604 144.785,33.604 144.497,33.604 144.21,33.604 143.922,33.604 
	143.633,33.604 143.345,33.604 143.057,33.604 142.769,33.604 142.481,33.604 142.193,33.604 141.905,33.604 141.617,33.604 
	141.329,33.604 141.041,33.604 140.753,33.604 140.465,33.604 140.177,33.604 139.889,33.604 139.601,33.604 139.313,33.604 
	139.025,33.604 138.737,33.604 138.448,33.604 138.16,33.604 137.872,33.604 137.584,33.604 137.296,33.604 137.009,33.604 
	136.721,33.604 136.433,33.604 136.145,33.604 135.856,33.604 135.568,33.604 135.28,33.604 134.992,33.604 134.704,33.604 
	134.416,33.604 134.128,33.604 133.84,33.604 133.552,33.604 133.263,33.604 132.975,33.604 132.688,33.604 132.4,33.604 
	132.112,33.604 131.824,33.604 131.536,33.604 131.248,33.604 130.96,33.604 130.671,33.604 130.383,33.604 130.095,33.604 
	129.807,33.604 129.52,33.604 129.232,33.604 128.944,33.604 128.656,33.604 128.367,33.604 128.079,33.604 127.791,33.604 
	127.503,33.604 127.215,33.604 126.927,33.604 126.639,33.604 126.351,33.604 126.063,33.604 125.775,33.604 125.487,33.604 
	125.199,33.604 125,33.604 125,47.995 125.199,47.995 125.487,47.995 125.775,47.995 126.063,47.995 126.351,47.995 126.639,47.995 
	126.927,47.995 126.935,47.995 126.935,47.995 125,48.801 125,62.975 160.037,47.995 161.18,36.689 161.204,36.453 "/>
<polygon fill="#FFFFFE" points="125,63.036 125,77.184 142.6,77.228 141.494,96.021 125,100.65 125,116.396 125,116.397 
	154.916,107.664 157.604,76.761 157.604,76.761 158.797,63.036 "/>
</svg>
