<svg id="Layer_2" data-name="Layer 2" xmlns="http://www.w3.org/2000/svg" viewBox="0 0 250 150"><defs><style>.cls-1{fill:#666;}.cls-2{fill:#61dafb;}</style></defs><g id="Layer_1" data-name="Layer 1"><rect class="cls-1" width="250" height="150"/></g><path class="cls-2" d="M190.86,75c0-8.72-10.92-17-27.68-22.12,3.87-17.08,2.15-30.66-5.42-35a11.81,11.81,0,0,0-6-1.51v6a6.16,6.16,0,0,1,3.06.7c3.66,2.09,5.24,10.07,4,20.32-.29,2.53-.77,5.19-1.36,7.9a131.1,131.1,0,0,0-17.05-2.93,131.29,131.29,0,0,0-11.17-13.42c8.75-8.14,17-12.6,22.55-12.6v-6h0c-7.38,0-17.05,5.26-26.82,14.39-9.78-9.08-19.44-14.29-26.83-14.29v6c5.56,0,13.8,4.43,22.56,12.51a126.63,126.63,0,0,0-11.09,13.4A127.08,127.08,0,0,0,92.51,51.3c-.62-2.68-1.07-5.29-1.4-7.78-1.26-10.26.3-18.23,3.92-20.35a5.94,5.94,0,0,1,3.09-.7v-6h0A12,12,0,0,0,92.05,18c-7.54,4.35-9.23,17.91-5.34,34.94C70,58.07,59.14,66.31,59.14,75S70.06,92,86.82,97.14c-3.87,17.08-2.15,30.66,5.42,35a11.83,11.83,0,0,0,6,1.5c7.39,0,17-5.26,26.83-14.39,9.77,9.08,19.44,14.29,26.82,14.29A12,12,0,0,0,158,132c7.54-4.35,9.24-17.91,5.34-34.93C180,92,190.86,83.71,190.86,75Zm-35-17.91c-1,3.47-2.22,7-3.62,10.61-1.1-2.15-2.26-4.3-3.52-6.44S146.21,57,144.9,55C148.71,55.55,152.39,56.24,155.9,57.1ZM143.61,85.7c-2.1,3.62-4.24,7.06-6.47,10.26-4,.35-8.06.53-12.14.53s-8.11-.18-12.08-.51c-2.23-3.19-4.41-6.6-6.5-10.2s-3.89-7.09-5.59-10.69c1.67-3.59,3.55-7.19,5.56-10.71s4.24-7.06,6.47-10.26c4-.35,8.06-.53,12.14-.53s8.11.18,12.08.51c2.23,3.19,4.41,6.6,6.5,10.2s3.89,7.09,5.59,10.69C147.47,78.58,145.62,82.18,143.61,85.7Zm8.67-3.49c1.45,3.6,2.69,7.2,3.71,10.69-3.52.86-7.23,1.58-11.07,2.14,1.32-2.06,2.63-4.18,3.87-6.36S151.18,84.36,152.28,82.21Zm-27.23,28.65a112.85,112.85,0,0,1-7.46-8.59c2.42.1,4.89.18,7.38.18s5,0,7.47-.18A106.18,106.18,0,0,1,125.05,110.86ZM105.08,95q-5.73-.84-11-2.12c1-3.46,2.23-7,3.62-10.6,1.1,2.14,2.26,4.29,3.52,6.44S103.76,93,105.08,95Zm19.84-55.87a110.67,110.67,0,0,1,7.46,8.59c-2.41-.11-4.88-.19-7.38-.19s-5,.06-7.46.19A104.17,104.17,0,0,1,124.92,39.17ZM105.05,55c-1.32,2.07-2.63,4.19-3.87,6.37s-2.39,4.29-3.49,6.44C96.24,64.19,95,60.59,94,57.1,97.51,56.27,101.21,55.55,105.05,55ZM80.75,88.6c-9.5-4-15.65-9.37-15.65-13.59s6.15-9.56,15.65-13.58c2.31-1,4.83-1.88,7.44-2.71a128.46,128.46,0,0,0,6,16.35,126.11,126.11,0,0,0-6,16.27C85.61,90.51,83.09,89.59,80.75,88.6ZM95.2,127c-3.66-2.1-5.24-10.07-4-20.33.29-2.52.77-5.18,1.36-7.89a131.1,131.1,0,0,0,17,2.93,133.49,133.49,0,0,0,11.17,13.42c-8.75,8.14-17,12.59-22.55,12.59A6.25,6.25,0,0,1,95.2,127Zm63.69-20.46c1.26,10.26-.3,18.23-3.92,20.35a5.94,5.94,0,0,1-3.09.7c-5.56,0-13.8-4.43-22.56-12.51a126.63,126.63,0,0,0,11.09-13.4,127.08,127.08,0,0,0,17.08-3A75.51,75.51,0,0,1,158.89,106.51ZM169.22,88.6c-2.31,1-4.83,1.88-7.43,2.71a130.11,130.11,0,0,0-6-16.35,127.21,127.21,0,0,0,6-16.27c2.66.83,5.19,1.74,7.55,2.74,9.5,4.05,15.65,9.37,15.65,13.58S178.73,84.57,169.22,88.6Z"/><path class="cls-2" d="M98.1,16.45Z"/><circle class="cls-2" cx="124.97" cy="75.01" r="12.27"/><path class="cls-2" d="M151.72,16.37Z"/></svg>
