<svg xmlns="http://www.w3.org/2000/svg" xml:space="preserve" viewBox="0 0 250 150">
	<path fill="#1572B6" d="m171.91 125.66 10.148-113.677.132-1.491H67.81l.132 1.491L78.08 125.678l.084.949.913.252 45.491 12.629h.729l45.615-12.647.913-.253z"/>
	<path fill="#35A8DB" d="M173.375 18.555H125v112.668l39.29-10.893z"/>
	<path fill="#E9E9E8" d="M161.492 33.604H87.754l.288 2.331.288 2.33.288 2.33.288 2.332.288 2.33.288 2.331.051.407h37.404l-1.991.829-34.119 14.21 1.131 14.068.051-.022.002.022 50.589.126-1.106 18.793-16.548 4.645-16.118-3.998-.97-11.634-14.857-.006 1.868 22.475L125 116.397l29.916-8.733 2.688-30.903 1.193-13.725h-33.94l.089-.038 35.091-15.003 1.143-11.306.024-.236z"/>
	<path fill="#FFFFFE" d="M161.492 33.604H125v14.391h1.935l-1.935.806v14.174l35.037-14.98 1.143-11.306.024-.236zM125 63.036v14.148l17.6.044-1.106 18.793L125 100.65v15.747l29.916-8.733 2.688-30.903 1.193-13.725z"/>
  </svg>