<svg xmlns="http://www.w3.org/2000/svg" xml:space="preserve" viewBox="0 0 250 150">
	<path fill="#E34F26" d="M77.984 126.985 67.536 9.764h114.927l-10.448 117.221-47.143 13.251"/>
	<path fill="#EF652A" d="m125.127 130.043 37.969-10.448 8.919-100.402h-46.888"/>
	<path fill="#EBEBEB" d="M125.127 62.768h-19.112l-1.274-14.78h20.386v-14.27H88.941l.255 3.822 3.568 39.753h32.363V62.768zm0 37.46h-.255l-16.054-4.332-1.019-11.467H93.528l1.784 22.68 29.56 8.154h.255v-15.035z"/>
	<path fill="#FFF" d="M124.873 62.768v14.525h17.838l-1.784 18.602-16.054 4.332v15.035l29.56-8.154.255-2.548L158 66.591l.51-3.822h-4.077l-29.56-.001zm0-29.05v14.27h34.911l.255-3.058.764-7.39.255-3.822h-36.185z"/>
  </svg>