<svg xmlns="http://www.w3.org/2000/svg" xml:space="preserve" viewBox="0 0 200 200">
  <circle cx="100" cy="100" r="92.341" fill="#B8312F"/>
  <path fill="#28324E" d="m191.759 89.727-23.157.638 18.99-19.592a91.595 91.595 0 0 0-3.154-8.147l-25.352 9.297 17.064-24.144a92.535 92.535 0 0 0-6.568-8.448l-25.984 14 12.516-26.648a92.248 92.248 0 0 0-11.89-7.759L102.17 76.208l44.951 88.005-1.319-21.04 20.763.411-11.145-12.214 35.082-12.973a91.48 91.48 0 0 0 .611-3.42l-27.796-4.546 28.96-12.937a92.925 92.925 0 0 0-.518-7.767zM55.956 18.82a92.283 92.283 0 0 0-11.833 7.677l12.604 26.834-26.205-14.12a92.788 92.788 0 0 0-6.508 8.338L41.24 71.922l-25.63-9.399a91.687 91.687 0 0 0-3.116 8l19.23 19.84-23.48-.647a93.247 93.247 0 0 0-.517 7.633l29.28 13.08-28.111 4.598c.178 1.085.363 2.167.578 3.239l35.43 13.102-11.145 12.214 20.763-.411-1.319 21.04L97.819 76.24 55.956 18.82z"/>
  <path fill="#FBA026" d="m100 131.657-47.122 32.557 23.061-50.039-39.257-33.717 48.448 8.095L100 39.781l14.87 48.772 48.448-10.758-39.257 36.38 23.061 50.039z"/>
</svg>