<?xml version="1.0" encoding="utf-8"?>
<!-- Generator: Adobe Illustrator 17.0.0, SVG Export Plug-In . SVG Version: 6.00 Build 0)  -->
<!DOCTYPE svg PUBLIC "-//W3C//DTD SVG 1.1//EN" "http://www.w3.org/Graphics/SVG/1.1/DTD/svg11.dtd">
<svg version="1.1" id="Layer_1" xmlns="http://www.w3.org/2000/svg" xmlns:xlink="http://www.w3.org/1999/xlink" x="0px" y="0px"
	 width="250px" height="150px" viewBox="0 0 250 150" enable-background="new 0 0 250 150" xml:space="preserve">
<rect fill="#666666" width="250" height="150"/>
<g>
	<path fill="#E34F26" d="M77.984,126.985L67.536,9.764h114.927l-10.448,117.221l-47.143,13.251"/>
	<path fill="#EF652A" d="M125.127,130.043l37.969-10.448l8.919-100.402h-46.888"/>
	<path fill="#EBEBEB" d="M125.127,62.768h-19.112l-1.274-14.78h20.386v-14.27h-0.255H88.941l0.255,3.822l3.568,39.753h32.363V62.768
		z M125.127,100.228h-0.255l-16.054-4.332l-1.019-11.467h-7.645h-6.626l1.784,22.68l29.56,8.154h0.255L125.127,100.228
		L125.127,100.228z"/>
	<path fill="#FFFFFF" d="M124.873,62.768v14.525h17.838l-1.784,18.602l-16.054,4.332v15.035l29.56-8.154l0.255-2.548L158,66.591
		l0.51-3.822h-4.077L124.873,62.768L124.873,62.768z M124.873,33.718v8.919v5.351l0,0h34.911l0,0l0,0l0.255-3.058l0.764-7.39
		l0.255-3.822H124.873z"/>
</g>
</svg>
