<?xml version="1.0" encoding="utf-8"?>
<!-- Generator: Adobe Illustrator 17.0.0, SVG Export Plug-In . SVG Version: 6.00 Build 0)  -->
<!DOCTYPE svg PUBLIC "-//W3C//DTD SVG 1.1//EN" "http://www.w3.org/Graphics/SVG/1.1/DTD/svg11.dtd">
<svg version="1.1" id="Layer_1" xmlns="http://www.w3.org/2000/svg" xmlns:xlink="http://www.w3.org/1999/xlink" x="0px" y="0px"
	 width="250px" height="150px" viewBox="0 0 250 150" enable-background="new 0 0 250 150" xml:space="preserve">
<rect fill="#666666" width="250" height="150"/>
<rect id="background" x="60.489" y="10.489" fill="#F7DF1E" width="129.023" height="129.023"/>
<path id="j" d="M94.413,118.309l9.874-5.975c1.905,3.377,3.638,6.235,7.794,6.235c3.984,0,6.496-1.558,6.496-7.621V69.722h12.125
	v41.397c0,12.558-7.361,18.274-18.101,18.274c-9.7,0-15.33-5.023-18.188-11.086"/>
<path id="s" d="M137.288,117.01l9.873-5.716c2.599,4.244,5.977,7.362,11.952,7.362c5.024,0,8.228-2.512,8.228-5.976
	c0-4.157-3.291-5.63-8.834-8.054l-3.031-1.3c-8.748-3.723-14.551-8.4-14.551-18.274c0-9.094,6.929-16.023,17.755-16.023
	c7.708,0,13.251,2.685,17.235,9.701l-9.44,6.062c-2.079-3.724-4.33-5.196-7.794-5.196c-3.551,0-5.803,2.252-5.803,5.196
	c0,3.638,2.252,5.11,7.448,7.362l3.031,1.299c10.306,4.417,16.109,8.921,16.109,19.053c0,10.913-8.574,16.889-20.093,16.889
	C148.114,129.395,140.838,124.026,137.288,117.01"/>
</svg>
