<?xml version="1.0" encoding="utf-8"?>
<!-- Generator: Adobe Illustrator 17.0.0, SVG Export Plug-In . SVG Version: 6.00 Build 0)  -->
<!DOCTYPE svg PUBLIC "-//W3C//DTD SVG 1.1//EN" "http://www.w3.org/Graphics/SVG/1.1/DTD/svg11.dtd">
<svg version="1.1" id="Layer_1" xmlns="http://www.w3.org/2000/svg" xmlns:xlink="http://www.w3.org/1999/xlink" x="0px" y="0px"
	 width="250px" height="150px" viewBox="0 0 250 150" enable-background="new 0 0 250 150" xml:space="preserve">
<g id="Layer_1_1_">
	<rect fill="#666666" width="250" height="150"/>
	<title>HTML5 Logo Badge</title>
	<g display="none">
		<path display="inline" fill="#E34F26" d="M77.984,126.985L67.536,9.764h114.927l-10.448,117.221l-47.143,13.251"/>
		<path display="inline" fill="#EF652A" d="M125.127,130.043l37.969-10.448l8.919-100.402h-46.888"/>
		<path display="inline" fill="#EBEBEB" d="M125.127,62.768h-19.112l-1.274-14.78h20.386v-14.27h-0.255H88.941l0.255,3.822
			l3.568,39.753h32.363V62.768z M125.127,100.228h-0.255l-16.054-4.332l-1.019-11.467h-7.645h-6.626l1.784,22.68l29.56,8.154h0.255
			L125.127,100.228L125.127,100.228z"/>
		<path display="inline" fill="#FFFFFF" d="M124.873,62.768v14.525h17.838l-1.784,18.602l-16.054,4.332v15.035l29.56-8.154
			l0.255-2.548L158,66.591l0.51-3.822h-4.077L124.873,62.768L124.873,62.768z M124.873,33.718v8.919v5.351l0,0h34.911l0,0l0,0
			l0.255-3.058l0.764-7.39l0.255-3.822H124.873z"/>
	</g>
</g>
<radialGradient id="path3462_1_" cx="-190.1082" cy="384.0198" r="0.2595" gradientTransform="matrix(567.2813 0 0 -567.2813 107933.9844 217891.6719)" gradientUnits="userSpaceOnUse">
	<stop  offset="0" style="stop-color:#AEB2D5"/>
	<stop  offset="0.3" style="stop-color:#AEB2D5"/>
	<stop  offset="0.75" style="stop-color:#484C89"/>
	<stop  offset="1" style="stop-color:#484C89"/>
</radialGradient>
<path id="path3462" fill="url(#path3462_1_)" d="M35.33,75c0,26.051,40.147,47.17,89.67,47.17s89.67-21.12,89.67-47.17
	S174.522,27.83,125,27.83S35.33,48.95,35.33,75"/>
<path id="path3474" fill="#777BB3" d="M125,118.667c47.589,0,86.167-19.55,86.167-43.668S172.589,31.331,125,31.331
	S38.832,50.882,38.832,74.999C38.832,99.117,77.411,118.667,125,118.667"/>
<path id="path3486" d="M84.047,80.412c3.912,0,6.834-0.721,8.683-2.144c1.829-1.409,3.091-3.847,3.754-7.25
	c0.618-3.18,0.382-5.401-0.699-6.6c-1.105-1.224-3.494-1.845-7.1-1.845h-6.252l-3.469,17.839H84.047z M63.594,102.386
	c-0.29,0-0.566-0.13-0.75-0.354c-0.185-0.224-0.26-0.519-0.204-0.804l9.188-47.27c0.091-0.457,0.49-0.787,0.956-0.787h19.8
	c6.224,0,10.855,1.69,13.768,5.022c2.929,3.35,3.83,8.034,2.688,13.92c-0.465,2.399-1.266,4.625-2.38,6.62
	c-1.116,1.996-2.59,3.844-4.381,5.491c-2.15,2.009-4.576,3.465-7.216,4.321c-2.595,0.846-5.927,1.275-9.908,1.275h-8.018
	l-2.29,11.78c-0.089,0.457-0.489,0.787-0.955,0.787H63.594V102.386z"/>
<g id="g3488" transform="translate(159.22 197.31)">
	<path id="path3490" fill="#FFFFFF" d="M-75.986-133.763h5.451c4.353,0,5.865,0.955,6.379,1.524
		c0.852,0.945,1.014,2.938,0.465,5.762c-0.615,3.162-1.756,5.404-3.391,6.664c-1.674,1.289-4.396,1.942-8.089,1.942h-3.904
		L-75.986-133.763z M-66.636-145.114h-19.801c-0.931,0-1.732,0.66-1.91,1.575l-9.188,47.27c-0.114,0.571,0.039,1.161,0.405,1.609
		c0.37,0.449,0.921,0.708,1.501,0.708h10.298c0.931,0,1.732-0.66,1.91-1.575l2.138-10.992h7.216c4.08,0,7.518-0.445,10.21-1.323
		c2.77-0.9,5.319-2.426,7.575-4.535c1.865-1.719,3.403-3.645,4.566-5.728c1.164-2.083,2.001-4.411,2.486-6.909
		c1.205-6.197,0.226-11.16-2.909-14.747C-55.24-143.314-60.119-145.114-66.636-145.114 M-81.435-115.924h6.262
		c4.153,0,7.245-0.781,9.276-2.346c2.032-1.565,3.402-4.176,4.115-7.835c0.681-3.514,0.371-5.992-0.931-7.436
		c-1.304-1.444-3.911-2.166-7.824-2.166h-7.055L-81.435-115.924 M-66.636-143.168c5.957,0,10.302,1.564,13.035,4.69
		c2.731,3.128,3.554,7.493,2.464,13.095c-0.449,2.309-1.208,4.419-2.275,6.331c-1.067,1.912-2.465,3.662-4.19,5.249
		c-2.056,1.924-4.34,3.295-6.853,4.11c-2.514,0.82-5.715,1.229-9.607,1.229h-8.821l-2.442,12.568h-10.298l9.188-47.27h19.8"/>
</g>
<g id="g3492" transform="translate(311.58 116.31)">
	<path id="path3494" d="M-178.933-26.491c-0.29,0-0.566-0.13-0.75-0.354c-0.185-0.224-0.26-0.519-0.204-0.804l4.064-20.916
		c0.386-1.989,0.291-3.416-0.269-4.02c-0.344-0.369-1.371-0.987-4.414-0.987h-7.362l-5.11,26.294
		c-0.089,0.457-0.49,0.787-0.955,0.787h-10.216c-0.29,0-0.566-0.13-0.751-0.354c-0.185-0.224-0.26-0.519-0.204-0.804l9.187-47.27
		c0.089-0.457,0.49-0.787,0.955-0.787h10.216c0.29,0,0.566,0.13,0.751,0.354c0.185,0.225,0.26,0.52,0.204,0.805l-2.217,11.409h7.921
		c6.034,0,10.125,1.064,12.509,3.252c2.429,2.232,3.188,5.803,2.252,10.612l-4.275,21.996c-0.089,0.458-0.489,0.788-0.955,0.788
		h-10.378V-26.491z"/>
</g>
<path id="path3498" fill="#FFFFFF" d="M126.836,39.629H116.62c-0.931,0-1.733,0.66-1.91,1.575l-9.187,47.27
	c-0.111,0.571,0.039,1.161,0.409,1.609c0.37,0.449,0.92,0.707,1.501,0.707h10.216c0.931,0,1.732-0.66,1.91-1.575l4.956-25.506h6.561
	c3.036,0,3.674,0.649,3.699,0.676c0.185,0.198,0.427,1.116,0.029,3.173l-4.064,20.916c-0.11,0.571,0.039,1.16,0.409,1.609
	c0.37,0.449,0.921,0.709,1.501,0.709h10.379c0.931,0,1.732-0.66,1.91-1.575l4.271-21.997c1.004-5.164,0.145-9.037-2.549-11.514
	c-2.571-2.361-6.879-3.509-13.167-3.509h-6.74l1.993-10.25c0.11-0.571-0.039-1.161-0.409-1.609
	C127.968,39.889,127.418,39.629,126.836,39.629 M126.836,41.575l-2.442,12.567h9.1c5.727,0,9.677,1,11.851,2.996
	c2.174,1.998,2.825,5.235,1.956,9.71l-4.275,21.997h-10.379l4.064-20.915c0.462-2.379,0.292-4.002-0.51-4.867
	c-0.804-0.865-2.514-1.299-5.128-1.299h-8.166l-5.264,27.081h-10.216l9.191-47.27h10.217"/>
<path id="path3502" d="M164.422,80.412c3.913,0,6.834-0.721,8.682-2.144c1.829-1.407,3.091-3.847,3.754-7.25
	c0.618-3.18,0.383-5.401-0.699-6.6c-1.105-1.224-3.494-1.845-7.1-1.845h-6.252l-3.468,17.837h5.083V80.412z M143.969,102.386
	c-0.29,0-0.566-0.13-0.75-0.354c-0.185-0.224-0.26-0.519-0.204-0.804l9.188-47.27c0.091-0.457,0.49-0.787,0.956-0.787h19.8
	c6.224,0,10.855,1.69,13.768,5.022c2.929,3.35,3.83,8.034,2.689,13.92c-0.465,2.399-1.266,4.625-2.38,6.62
	c-1.116,1.996-2.589,3.844-4.381,5.491c-2.15,2.009-4.577,3.465-7.216,4.321c-2.595,0.846-5.928,1.275-9.908,1.275h-8.019
	l-2.289,11.78c-0.089,0.457-0.49,0.787-0.955,0.787h-10.299V102.386z"/>
<path id="path3506" fill="#FFFFFF" d="M163.608,63.547h5.451c4.352,0,5.865,0.955,6.379,1.524c0.853,0.945,1.014,2.938,0.465,5.762
	c-0.615,3.163-1.758,5.405-3.391,6.664c-1.674,1.289-4.396,1.942-8.089,1.942h-3.904L163.608,63.547z M172.959,52.196h-19.801
	c-0.931,0-1.732,0.66-1.91,1.575l-9.188,47.27c-0.111,0.571,0.039,1.161,0.409,1.609c0.37,0.449,0.92,0.708,1.501,0.708h10.298
	c0.931,0,1.732-0.66,1.91-1.575l2.136-10.993h7.216c4.08,0,7.515-0.445,10.209-1.323c2.77-0.9,5.319-2.426,7.575-4.536
	c1.865-1.716,3.399-3.643,4.564-5.726c1.165-2.085,2.001-4.409,2.487-6.909c1.205-6.196,0.226-11.157-2.909-14.746
	C184.354,53.999,179.475,52.196,172.959,52.196 M158.159,81.386h6.262c4.152,0,7.245-0.781,9.276-2.346
	c2.033-1.565,3.403-4.176,4.115-7.835c0.681-3.514,0.371-5.992-0.931-7.436c-1.304-1.444-3.911-2.166-7.824-2.166h-7.055
	L158.159,81.386 M172.959,54.142c5.958,0,10.303,1.564,13.035,4.69c2.731,3.127,3.554,7.493,2.464,13.095
	c-0.449,2.309-1.208,4.419-2.275,6.331c-1.067,1.912-2.465,3.662-4.19,5.249c-2.056,1.924-4.34,3.295-6.853,4.11
	c-2.514,0.82-5.715,1.229-9.607,1.229h-8.821l-2.443,12.568h-10.298l9.188-47.27h19.8"/>
</svg>
