<svg xmlns="http://www.w3.org/2000/svg" xml:space="preserve" viewBox="0 0 250 150">
  <path fill="#F7DF1E" d="M60.489 10.489h129.023v129.023H60.489z"/>
  <path d="m94.413 118.309 9.874-5.975c1.905 3.377 3.638 6.235 7.794 6.235 3.984 0 6.496-1.558 6.496-7.621V69.722h12.125v41.397c0 12.558-7.361 18.274-18.101 18.274-9.7 0-15.33-5.023-18.188-11.086m42.875-1.297 9.873-5.716c2.599 4.244 5.977 7.362 11.952 7.362 5.024 0 8.228-2.512 8.228-5.976 0-4.157-3.291-5.63-8.834-8.054l-3.031-1.3c-8.748-3.723-14.551-8.4-14.551-18.274 0-9.094 6.929-16.023 17.755-16.023 7.708 0 13.251 2.685 17.235 9.701l-9.44 6.062c-2.079-3.724-4.33-5.196-7.794-5.196-3.551 0-5.803 2.252-5.803 5.196 0 3.638 2.252 5.11 7.448 7.362l3.031 1.299c10.306 4.417 16.109 8.921 16.109 19.053 0 10.913-8.574 16.889-20.093 16.889-11.259 0-18.535-5.369-22.085-12.385"/>
</svg>