<svg xmlns="http://www.w3.org/2000/svg" xml:space="preserve" viewBox="0 0 250 150">
  <radialGradient id="a" cx="-190.108" cy="384.02" r=".26" gradientTransform="matrix(567.2813 0 0 -567.2813 107933.984 217891.672)" gradientUnits="userSpaceOnUse">
    <stop offset="0" stop-color="#aeb2d5"/>
    <stop offset=".3" stop-color="#aeb2d5"/>
    <stop offset=".75" stop-color="#484c89"/>
    <stop offset="1" stop-color="#484c89"/>
  </radialGradient>
  <path fill="url(#a)" d="M35.33 75c0 26.051 40.147 47.17 89.67 47.17s89.67-21.12 89.67-47.17S174.522 27.83 125 27.83 35.33 48.95 35.33 75"/>
  <path fill="#777BB3" d="M125 118.667c47.589 0 86.167-19.55 86.167-43.668S172.589 31.331 125 31.331 38.832 50.882 38.832 74.999c0 24.118 38.579 43.668 86.168 43.668"/>
  <path d="M84.047 80.412c3.912 0 6.834-.721 8.683-2.144 1.829-1.409 3.091-3.847 3.754-7.25.618-3.18.382-5.401-.699-6.6-1.105-1.224-3.494-1.845-7.1-1.845h-6.252l-3.469 17.839h5.083zm-20.453 21.974a.972.972 0 0 1-.954-1.158l9.188-47.27a.975.975 0 0 1 .956-.787h19.8c6.224 0 10.855 1.69 13.768 5.022 2.929 3.35 3.83 8.034 2.688 13.92-.465 2.399-1.266 4.625-2.38 6.62-1.116 1.996-2.59 3.844-4.381 5.491-2.15 2.009-4.576 3.465-7.216 4.321-2.595.846-5.927 1.275-9.908 1.275h-8.018l-2.29 11.78a.973.973 0 0 1-.955.787H63.594v-.001z"/>
  <path fill="#FFF" d="M83.234 63.547h5.451c4.353 0 5.865.955 6.379 1.524.852.945 1.014 2.938.465 5.762-.615 3.162-1.756 5.404-3.391 6.664-1.674 1.289-4.396 1.942-8.089 1.942h-3.904l3.089-15.892zm9.35-11.351H72.783c-.931 0-1.732.66-1.91 1.575l-9.188 47.27a1.945 1.945 0 0 0 .405 1.609c.37.449.921.708 1.501.708h10.298c.931 0 1.732-.66 1.91-1.575l2.138-10.992h7.216c4.08 0 7.518-.445 10.21-1.323 2.77-.9 5.319-2.426 7.575-4.535 1.865-1.719 3.403-3.645 4.566-5.728 1.164-2.083 2.001-4.411 2.486-6.909 1.205-6.197.226-11.16-2.909-14.747-3.101-3.553-7.98-5.353-14.497-5.353m-14.799 29.19h6.262c4.153 0 7.245-.781 9.276-2.346 2.032-1.565 3.402-4.176 4.115-7.835.681-3.514.371-5.992-.931-7.436-1.304-1.444-3.911-2.166-7.824-2.166h-7.055l-3.843 19.783m14.799-27.244c5.957 0 10.302 1.564 13.035 4.69 2.731 3.128 3.554 7.493 2.464 13.095-.449 2.309-1.208 4.419-2.275 6.331-1.067 1.912-2.465 3.662-4.19 5.249-2.056 1.924-4.34 3.295-6.853 4.11-2.514.82-5.715 1.229-9.607 1.229h-8.821l-2.442 12.568H63.597l9.188-47.27h19.8"/>
  <path d="M132.647 89.819a.972.972 0 0 1-.954-1.158l4.064-20.916c.386-1.989.291-3.416-.269-4.02-.344-.369-1.371-.987-4.414-.987h-7.362l-5.11 26.294a.974.974 0 0 1-.955.787h-10.216a.975.975 0 0 1-.955-1.158l9.187-47.27a.974.974 0 0 1 .955-.787h10.216a.975.975 0 0 1 .955 1.159l-2.217 11.409h7.921c6.034 0 10.125 1.064 12.509 3.252 2.429 2.232 3.188 5.803 2.252 10.612l-4.275 21.996a.973.973 0 0 1-.955.788h-10.378v-.001z"/>
  <path fill="#FFF" d="M126.836 39.629H116.62c-.931 0-1.733.66-1.91 1.575l-9.187 47.27a1.944 1.944 0 0 0 1.91 2.316h10.216c.931 0 1.732-.66 1.91-1.575l4.956-25.506h6.561c3.036 0 3.674.649 3.699.676.185.198.427 1.116.029 3.173l-4.064 20.916a1.948 1.948 0 0 0 1.91 2.318h10.379c.931 0 1.732-.66 1.91-1.575l4.271-21.997c1.004-5.164.145-9.037-2.549-11.514-2.571-2.361-6.879-3.509-13.167-3.509h-6.74l1.993-10.25a1.947 1.947 0 0 0-1.911-2.318m0 1.946-2.442 12.567h9.1c5.727 0 9.677 1 11.851 2.996 2.174 1.998 2.825 5.235 1.956 9.71l-4.275 21.997h-10.379l4.064-20.915c.462-2.379.292-4.002-.51-4.867-.804-.865-2.514-1.299-5.128-1.299h-8.166l-5.264 27.081h-10.216l9.191-47.27h10.217"/>
  <path d="M164.422 80.412c3.913 0 6.834-.721 8.682-2.144 1.829-1.407 3.091-3.847 3.754-7.25.618-3.18.383-5.401-.699-6.6-1.105-1.224-3.494-1.845-7.1-1.845h-6.252l-3.468 17.837h5.083v.002zm-20.453 21.974a.972.972 0 0 1-.954-1.158l9.188-47.27a.975.975 0 0 1 .956-.787h19.8c6.224 0 10.855 1.69 13.768 5.022 2.929 3.35 3.83 8.034 2.689 13.92-.465 2.399-1.266 4.625-2.38 6.62-1.116 1.996-2.589 3.844-4.381 5.491-2.15 2.009-4.577 3.465-7.216 4.321-2.595.846-5.928 1.275-9.908 1.275h-8.019l-2.289 11.78a.974.974 0 0 1-.955.787h-10.299v-.001z"/>
  <path fill="#FFF" d="M163.608 63.547h5.451c4.352 0 5.865.955 6.379 1.524.853.945 1.014 2.938.465 5.762-.615 3.163-1.758 5.405-3.391 6.664-1.674 1.289-4.396 1.942-8.089 1.942h-3.904l3.089-15.892zm9.351-11.351h-19.801c-.931 0-1.732.66-1.91 1.575l-9.188 47.27a1.944 1.944 0 0 0 1.91 2.317h10.298c.931 0 1.732-.66 1.91-1.575l2.136-10.993h7.216c4.08 0 7.515-.445 10.209-1.323 2.77-.9 5.319-2.426 7.575-4.536 1.865-1.716 3.399-3.643 4.564-5.726 1.165-2.085 2.001-4.409 2.487-6.909 1.205-6.196.226-11.157-2.909-14.746-3.102-3.551-7.981-5.354-14.497-5.354m-14.8 29.19h6.262c4.152 0 7.245-.781 9.276-2.346 2.033-1.565 3.403-4.176 4.115-7.835.681-3.514.371-5.992-.931-7.436-1.304-1.444-3.911-2.166-7.824-2.166h-7.055l-3.843 19.783m14.8-27.244c5.958 0 10.303 1.564 13.035 4.69 2.731 3.127 3.554 7.493 2.464 13.095-.449 2.309-1.208 4.419-2.275 6.331-1.067 1.912-2.465 3.662-4.19 5.249-2.056 1.924-4.34 3.295-6.853 4.11-2.514.82-5.715 1.229-9.607 1.229h-8.821l-2.443 12.568h-10.298l9.188-47.27h19.8"/>
</svg>