<svg xmlns="http://www.w3.org/2000/svg" id="react-icon" viewBox="0 0 250 150">
    <defs>
        <style>
            .color-cyan{fill:#61dafb}
        </style>
    </defs>
    <path
        d="M190.86 75c0-8.72-10.92-17-27.68-22.12 3.87-17.08 2.15-30.66-5.42-35a11.81 11.81 0 0 0-6-1.51v6a6.16 6.16 0 0 1 3.06.7c3.66 2.09 5.24 10.07 4 20.32-.29 2.53-.77 5.19-1.36 7.9a131.1 131.1 0 0 0-17.05-2.93 131.29 131.29 0 0 0-11.17-13.42c8.75-8.14 17-12.6 22.55-12.6v-6c-7.38 0-17.05 5.26-26.82 14.39-9.78-9.08-19.44-14.29-26.83-14.29v6c5.56 0 13.8 4.43 22.56 12.51a126.63 126.63 0 0 0-11.09 13.4 127.08 127.08 0 0 0-17.1 2.95c-.62-2.68-1.07-5.29-1.4-7.78-1.26-10.26.3-18.23 3.92-20.35a5.94 5.94 0 0 1 3.09-.7v-6A12 12 0 0 0 92.05 18c-7.54 4.35-9.23 17.91-5.34 34.94C70 58.07 59.14 66.31 59.14 75s10.92 17 27.68 22.14c-3.87 17.08-2.15 30.66 5.42 35a11.83 11.83 0 0 0 6 1.5c7.39 0 17-5.26 26.83-14.39 9.77 9.08 19.44 14.29 26.82 14.29A12 12 0 0 0 158 132c7.54-4.35 9.24-17.91 5.34-34.93C180 92 190.86 83.71 190.86 75Zm-35-17.91c-1 3.47-2.22 7-3.62 10.61-1.1-2.15-2.26-4.3-3.52-6.44S146.21 57 144.9 55c3.81.55 7.49 1.24 11 2.1ZM143.61 85.7c-2.1 3.62-4.24 7.06-6.47 10.26-4 .35-8.06.53-12.14.53s-8.11-.18-12.08-.51c-2.23-3.19-4.41-6.6-6.5-10.2s-3.89-7.09-5.59-10.69c1.67-3.59 3.55-7.19 5.56-10.71s4.24-7.06 6.47-10.26c4-.35 8.06-.53 12.14-.53s8.11.18 12.08.51c2.23 3.19 4.41 6.6 6.5 10.2s3.89 7.09 5.59 10.69c-1.7 3.59-3.55 7.19-5.56 10.71Zm8.67-3.49c1.45 3.6 2.69 7.2 3.71 10.69-3.52.86-7.23 1.58-11.07 2.14 1.32-2.06 2.63-4.18 3.87-6.36s2.39-4.32 3.49-6.47Zm-27.23 28.65a112.85 112.85 0 0 1-7.46-8.59c2.42.1 4.89.18 7.38.18s5 0 7.47-.18a106.18 106.18 0 0 1-7.39 8.59ZM105.08 95q-5.73-.84-11-2.12c1-3.46 2.23-7 3.62-10.6 1.1 2.14 2.26 4.29 3.52 6.44s2.54 4.28 3.86 6.28Zm19.84-55.87a110.67 110.67 0 0 1 7.46 8.59c-2.41-.11-4.88-.19-7.38-.19s-5 .06-7.46.19a104.17 104.17 0 0 1 7.38-8.55ZM105.05 55c-1.32 2.07-2.63 4.19-3.87 6.37s-2.39 4.29-3.49 6.44C96.24 64.19 95 60.59 94 57.1c3.51-.83 7.21-1.55 11.05-2.1Zm-24.3 33.6c-9.5-4-15.65-9.37-15.65-13.59s6.15-9.56 15.65-13.58c2.31-1 4.83-1.88 7.44-2.71a128.46 128.46 0 0 0 6 16.35 126.11 126.11 0 0 0-6 16.27c-2.58-.83-5.1-1.75-7.44-2.74ZM95.2 127c-3.66-2.1-5.24-10.07-4-20.33.29-2.52.77-5.18 1.36-7.89a131.1 131.1 0 0 0 17 2.93 133.49 133.49 0 0 0 11.17 13.42c-8.75 8.14-17 12.59-22.55 12.59a6.25 6.25 0 0 1-2.98-.72Zm63.69-20.46c1.26 10.26-.3 18.23-3.92 20.35a5.94 5.94 0 0 1-3.09.7c-5.56 0-13.8-4.43-22.56-12.51a126.63 126.63 0 0 0 11.09-13.4 127.08 127.08 0 0 0 17.08-3 75.51 75.51 0 0 1 1.4 7.83Zm10.33-17.94c-2.31 1-4.83 1.88-7.43 2.71a130.11 130.11 0 0 0-6-16.35 127.21 127.21 0 0 0 6-16.27c2.66.83 5.19 1.74 7.55 2.74 9.5 4.05 15.65 9.37 15.65 13.58s-6.26 9.56-15.77 13.59ZM98.1 16.45Z"
        class="color-cyan" />
    <circle cx="124.97" cy="75.01" r="12.27" class="color-cyan" />
    <path d="M151.72 16.37Z" class="color-cyan" />
</svg>