<?xml version="1.0" encoding="utf-8"?>
<!-- Generator: Adobe Illustrator 17.0.0, SVG Export Plug-In . SVG Version: 6.00 Build 0)  -->
<!DOCTYPE svg PUBLIC "-//W3C//DTD SVG 1.1//EN" "http://www.w3.org/Graphics/SVG/1.1/DTD/svg11.dtd" [
	<!ENTITY ns_flows "http://ns.adobe.com/Flows/1.0/">
	<!ENTITY ns_extend "http://ns.adobe.com/Extensibility/1.0/">
	<!ENTITY ns_ai "http://ns.adobe.com/AdobeIllustrator/10.0/">
	<!ENTITY ns_graphs "http://ns.adobe.com/Graphs/1.0/">
]>
<svg version="1.1" id="Layer_1" xmlns:x="&ns_extend;" xmlns:i="&ns_ai;" xmlns:graph="&ns_graphs;"
	 xmlns="http://www.w3.org/2000/svg" xmlns:xlink="http://www.w3.org/1999/xlink" xmlns:a="http://ns.adobe.com/AdobeSVGViewerExtensions/3.0/"
	 x="0px" y="0px" width="200px" height="200px" viewBox="0 0 200 200" enable-background="new 0 0 200 200" xml:space="preserve">
<circle fill="#B8312F" cx="100" cy="100" r="92.341"/>
<path fill="#28324E" d="M191.759,89.727l-23.157,0.638l18.99-19.592c-0.926-2.777-1.978-5.494-3.154-8.147l-25.352,9.297
	l17.064-24.144c-2.025-2.947-4.223-5.762-6.568-8.448l-25.984,14l12.516-26.648c-3.75-2.875-7.717-5.479-11.89-7.759l-42.054,57.284
	l44.951,88.005l-1.319-21.04l20.763,0.411l-11.145-12.214l35.082-12.973c0.229-1.131,0.424-2.274,0.611-3.42l-27.796-4.546
	l28.96-12.937C192.208,94.877,192.042,92.285,191.759,89.727z"/>
<path fill="#28324E" d="M55.956,18.82c-4.15,2.256-8.099,4.833-11.833,7.677l12.604,26.834l-26.205-14.12
	c-2.322,2.652-4.498,5.432-6.508,8.338l17.226,24.373l-25.63-9.399c-1.159,2.606-2.198,5.274-3.116,8l19.23,19.84l-23.48-0.647
	c-0.279,2.515-0.444,5.062-0.517,7.633l29.28,13.08l-28.111,4.598c0.178,1.085,0.363,2.167,0.578,3.239l35.43,13.102l-11.145,12.214
	l20.763-0.411l-1.319,21.04l44.616-87.971L55.956,18.82z"/>
<polygon fill="#FBA026" points="100,131.657 52.878,164.214 75.939,114.175 36.682,80.458 85.13,88.553 100,39.781 114.87,88.553 
	163.318,77.795 124.061,114.175 147.122,164.214 "/>
</svg>
